<svg viewBox="131.893 76.933 232.482 350.254" xmlns="http://www.w3.org/2000/svg">
  <g transform="matrix(0.237202, 0, 0, 0.165032, 129.520828, 266.099152)" style="">
      <path d="M934.6,23.8c-5.5,0-11.2,0.7-17,2.2c-78,19.3-235.9,51.7-417.5,51.7C318.4,77.7,160.5,45.3,82.5,26c-5.8-1.4-11.5-2.2-17-2.2C32.8,23.8,10,47.6,10,81.6v537.8c0,36.9,24.1,81.9,54.8,102.4l355.8,237.7c16,10.7,37.3,16.6,60,16.6h38.9c22.6,0,44-5.9,60-16.6l355.8-237.7c30.7-20.5,54.8-65.5,54.8-102.4V81.6C990,47.6,967.2,23.8,934.6,23.8z M965.3,619.5c0,28.5-20,66-43.8,81.9L565.8,939c-11.4,7.6-28.4,12-46.5,12h-38.4c-18.1,0-35.1-4.4-46.5-12L78.4,701.3c-23.7-15.9-43.8-53.3-43.8-81.9V81.6c0-20.1,12.1-33.1,30.7-33.1c3.5,0,7.2,0.5,11.1,1.4c79.1,19.6,239.3,52.4,423.5,52.4c184.2,0,344.4-32.9,423.5-52.4c3.9-1,7.6-1.4,11.1-1.4c18.7,0,30.7,13,30.7,33.1L965.3,619.5L965.3,619.5z M101.3,169.4c5.4,0,9.9-4.4,9.9-9.9v-29.6c0-5.5-4.4-9.9-9.9-9.9c-5.5,0-9.9,4.4-9.9,9.9v29.6C91.4,164.9,95.9,169.4,101.3,169.4z M101.3,291.4c5.4,0,9.9-4.4,9.9-9.9v-61c0-5.4-4.4-9.9-9.9-9.9c-5.5,0-9.9,4.4-9.9,9.9v61C91.4,286.9,95.9,291.4,101.3,291.4z M101.3,535.4c5.4,0,9.9-4.4,9.9-9.9v-61c0-5.4-4.4-9.9-9.9-9.9c-5.5,0-9.9,4.4-9.9,9.9v61C91.4,531,95.9,535.4,101.3,535.4z M101.3,413.4c5.4,0,9.9-4.4,9.9-9.9v-61c0-5.5-4.4-9.9-9.9-9.9c-5.5,0-9.9,4.4-9.9,9.9v61C91.4,409,95.9,413.4,101.3,413.4z M111.2,610.9v-24.4c0-5.5-4.4-9.9-9.9-9.9c-5.5,0-9.9,4.4-9.9,9.9v34.8l28.8,19.6c1.7,1.2,3.6,1.7,5.5,1.7c3.1,0,6.2-1.5,8.2-4.3c3.1-4.5,1.9-10.6-2.6-13.7L111.2,610.9z M378.1,792.4c-4.4-3-10.6-1.9-13.7,2.6c-3.1,4.5-1.9,10.7,2.6,13.7l49.3,33.5c1.7,1.2,3.6,1.7,5.5,1.7c3.1,0,6.2-1.5,8.2-4.3c3.1-4.5,1.9-10.7-2.6-13.7L378.1,792.4z M279.4,725.3c-4.4-3-10.6-1.9-13.7,2.6c-3.1,4.5-1.9,10.6,2.6,13.7l49.3,33.5c1.7,1.2,3.6,1.7,5.5,1.7c3.1,0,6.2-1.5,8.2-4.3c3.1-4.5,1.9-10.6-2.6-13.7L279.4,725.3z M180.7,658.2c-4.5-3-10.6-1.9-13.7,2.6c-3.1,4.5-1.9,10.7,2.6,13.7L219,708c1.7,1.2,3.6,1.7,5.5,1.7c3.1,0,6.2-1.5,8.2-4.3c3.1-4.5,1.9-10.7-2.6-13.7L180.7,658.2z M516.4,860.8l-20.2,11.8l-19.4-13.2c-4.4-3-10.6-1.9-13.7,2.6c-3.1,4.5-1.9,10.6,2.6,13.7l29.6,20.2l31-18c4.7-2.7,6.3-8.8,3.6-13.5C527.1,859.6,521,858.1,516.4,860.8z M615.7,803.1L566,832c-4.7,2.7-6.3,8.8-3.6,13.5c1.8,3.2,5.2,4.9,8.5,4.9c1.7,0,3.4-0.4,5-1.3l49.7-28.9c4.7-2.7,6.3-8.8,3.6-13.5C626.4,801.9,620.4,800.3,615.7,803.1z M715,745.3l-49.7,28.9c-4.7,2.7-6.3,8.8-3.6,13.5c1.8,3.2,5.2,4.9,8.5,4.9c1.7,0,3.4-0.4,5-1.3l49.7-28.8c4.7-2.7,6.3-8.8,3.6-13.5C725.7,744.2,719.6,742.6,715,745.3z M814.3,687.6l-49.7,28.9c-4.7,2.7-6.3,8.8-3.6,13.5c1.8,3.2,5.2,4.9,8.6,4.9c1.7,0,3.4-0.4,5-1.3l49.7-28.9c4.7-2.7,6.3-8.8,3.6-13.5C825,686.4,819,684.8,814.3,687.6z M894.5,612.9c-5.5,0-9.9,4.4-9.9,9.9v24l-20.7,12c-4.7,2.7-6.3,8.8-3.6,13.5c1.8,3.2,5.2,4.9,8.6,4.9c1.7,0,3.4-0.4,5-1.3l30.5-17.7v-35.3C904.3,617.3,899.9,612.9,894.5,612.9z M894.5,480.5c-5.5,0-9.9,4.4-9.9,9.9v66.2c0,5.5,4.4,9.9,9.9,9.9c5.5,0,9.9-4.4,9.9-9.9v-66.2C904.3,484.9,899.9,480.5,894.5,480.5z M894.5,215.8c-5.5,0-9.9,4.4-9.9,9.9v66.2c0,5.5,4.4,9.9,9.9,9.9c5.5,0,9.9-4.4,9.9-9.9v-66.2C904.3,220.2,899.9,215.8,894.5,215.8z M894.5,348.2c-5.5,0-9.9,4.4-9.9,9.9v66.2c0,5.4,4.4,9.9,9.9,9.9c5.5,0,9.9-4.4,9.9-9.9V358C904.3,352.6,899.9,348.2,894.5,348.2z M894.5,120c-5.5,0-9.9,4.4-9.9,9.9v29.6c0,5.4,4.4,9.9,9.9,9.9c5.5,0,9.9-4.4,9.9-9.9v-29.6C904.3,124.4,899.9,120,894.5,120z" style="fill: rgb(255, 255, 255);"/>
  </g>
  <g transform="matrix(0.307609, 0, 0, 0.212269, 111.845337, 27.70314)" style="">
        <path d="M 234.042 1121.121 C 245.142 1121.121 255.442 1117.921 264.542 1113.021 L 264.542 1176.321 L 284.942 1176.321 L 284.942 1108.721 C 295.442 1116.421 308.342 1121.221 322.442 1121.221 C 352.842 1121.221 378.142 1099.821 384.342 1071.321 C 395.842 1069.421 406.342 1064.621 414.942 1057.521 L 414.942 1029.921 C 400.442 1034.121 385.742 1036.321 370.742 1036.321 C 326.542 1036.321 285.542 1018.821 254.342 986.921 C 193.542 962.321 153.042 903.121 152.442 837.621 C 141.742 847.321 134.342 860.721 132.442 876.121 C 130.542 891.221 134.442 905.621 141.942 917.521 C 128.842 929.121 120.442 946.021 120.442 964.821 C 120.442 987.321 132.142 1007.021 149.742 1018.321 C 147.142 1025.421 145.442 1032.921 145.442 1040.821 C 145.442 1068.321 162.942 1091.421 187.242 1100.321 C 198.942 1113.021 215.442 1121.121 234.042 1121.121 Z" style="fill: rgb(255, 255, 255);"/>
        <path d="M 815.642 947.421 C 815.642 923.621 802.442 903.121 783.042 892.221 C 765.342 906.321 744.542 916.921 721.542 922.721 C 700.142 989.321 637.042 1036.221 566.142 1036.221 C 553.642 1036.221 541.242 1034.621 529.142 1031.621 C 528.642 1034.621 528.342 1037.621 528.342 1040.721 C 528.342 1068.121 545.742 1091.321 570.142 1100.121 C 581.742 1112.821 598.342 1120.921 616.942 1120.921 C 628.042 1120.921 638.442 1117.721 647.442 1112.821 L 647.442 1176.121 L 667.942 1176.121 L 667.942 1108.521 C 678.442 1116.321 691.242 1121.021 705.342 1121.021 C 735.842 1121.021 761.142 1099.621 767.342 1071.121 C 797.642 1066.221 820.942 1040.221 820.942 1008.521 C 820.942 995.421 816.942 983.321 810.142 973.121 C 813.442 965.421 815.642 956.721 815.642 947.421 Z" style="fill: rgb(255, 255, 255);"/>
        <path d="M 483.242 973.021 C 506.442 990.121 534.942 1000.621 566.042 1000.621 C 633.142 1000.621 688.942 953.521 702.742 890.521 C 769.542 879.921 820.842 822.521 820.842 752.721 C 820.842 723.821 812.042 697.021 797.042 674.721 C 804.842 657.321 809.442 638.021 809.442 617.721 C 809.442 557.621 771.242 506.721 718.142 486.921 C 729.242 466.821 736.142 444.021 736.142 419.521 C 736.142 342.221 673.442 279.521 596.042 279.521 C 568.342 279.521 542.742 287.821 521.042 301.621 C 496.642 260.121 452.142 231.921 400.542 231.921 C 334.242 231.921 279.142 278.021 264.542 339.821 C 204.242 349.221 154.842 396.921 146.842 460.421 C 142.742 493.821 151.142 525.421 167.842 551.921 C 138.942 577.621 120.442 614.521 120.442 656.221 C 120.442 705.821 146.342 749.121 185.242 774.021 C 179.342 789.621 175.742 806.121 175.742 823.721 C 175.742 884.121 214.142 935.221 267.742 954.821 C 293.442 982.821 329.842 1000.721 370.842 1000.721 C 395.442 1000.721 418.242 993.921 438.242 982.721 L 438.242 1187.221 L 483.242 1187.121 L 483.242 973.021 Z" style="fill: rgb(255, 255, 255);"/>
  </g>
  <path d="M 177.587 325.048 C 178.661 325.048 179.54 324.228 179.54 323.193 L 179.54 323.173 L 179.521 314.599 L 182.841 314.521 C 189.247 314.345 193.954 311.845 193.954 305.224 C 193.954 299.462 189.384 296.728 183.681 296.728 L 177.528 296.767 C 176.278 296.786 175.595 297.958 175.595 298.661 L 175.634 323.134 L 175.634 323.153 C 175.634 324.189 176.513 325.048 177.587 325.048 Z M 190.048 305.243 C 190.048 309.325 187.372 310.478 182.782 310.575 L 179.521 310.653 L 179.501 300.653 L 183.544 300.653 C 187.607 300.653 190.048 301.982 190.048 305.243 Z M 209.649 296.415 C 201.798 296.415 195.978 303.134 195.978 310.868 C 195.978 318.818 201.446 325.282 209.669 325.282 C 217.735 325.282 223.399 318.857 223.399 310.985 C 223.399 303.134 217.618 296.415 209.649 296.415 Z M 209.728 300.38 C 215.196 300.38 219.552 305.302 219.552 311.357 C 219.552 316.376 215.001 321.337 209.649 321.337 C 204.278 321.337 199.884 316.591 199.884 311.259 C 199.884 305.419 203.946 300.38 209.728 300.38 Z M 249.474 314.384 C 248.615 314.384 247.911 314.814 247.579 315.556 C 246.193 318.583 242.833 321.259 238.556 321.259 C 232.814 321.259 229.279 316.493 229.279 310.79 C 229.279 305.126 232.853 300.282 238.536 300.282 C 242.872 300.282 246.095 302.782 247.56 305.79 C 247.911 306.552 248.673 306.923 249.572 306.923 C 250.49 306.923 251.29 305.966 251.29 305.009 C 251.29 304.696 251.232 304.443 251.075 304.15 C 249.025 299.931 244.533 296.376 238.536 296.376 C 230.626 296.376 225.372 303.075 225.372 310.751 C 225.372 318.525 230.529 325.185 238.595 325.185 C 244.708 325.185 249.161 321.435 251.134 317.118 C 251.271 316.845 251.329 316.532 251.329 316.181 C 251.329 315.263 250.411 314.384 249.474 314.384 Z M 253.751 322.509 C 253.751 323.857 254.201 325.028 255.665 325.028 C 256.622 325.028 257.658 324.345 257.658 323.232 C 257.677 322.235 257.697 318.407 257.736 313.544 L 259.865 311.728 L 271.759 324.482 C 272.15 324.853 272.677 324.989 273.126 324.989 C 274.181 324.989 275.138 324.13 275.138 323.095 C 275.138 322.646 274.943 322.235 274.572 321.845 L 262.814 309.208 L 273.712 300.146 C 274.161 299.755 274.376 299.267 274.376 298.759 C 274.376 297.763 273.556 296.767 272.443 296.767 C 271.994 296.767 271.525 296.962 271.134 297.314 L 257.755 308.525 C 257.736 305.243 257.736 301.864 257.716 298.544 C 257.716 297.489 256.818 296.61 255.744 296.61 C 254.65 296.61 253.81 297.45 253.81 298.505 L 253.79 317.646 C 253.79 319.989 253.751 321.435 253.751 322.509 Z M 277.07 298.661 L 277.128 322.86 C 277.128 323.915 278.007 324.794 279.082 324.794 L 295.761 324.775 L 295.781 324.775 C 296.855 324.775 297.734 323.896 297.734 322.821 C 297.734 321.747 296.855 320.868 295.781 320.868 L 295.761 320.868 L 281.035 320.888 L 281.015 312.626 L 294.14 312.724 L 294.16 312.724 C 295.136 312.724 296.113 311.923 296.113 310.868 C 296.113 309.657 295.273 308.778 294.16 308.778 L 280.996 308.681 L 280.976 300.673 L 295.761 300.693 L 295.781 300.693 C 296.855 300.693 297.734 299.814 297.734 298.739 C 297.734 297.665 296.855 296.786 295.781 296.786 L 295.761 296.786 L 279.023 296.767 C 277.949 296.767 277.07 297.626 277.07 298.661 Z M 299.192 298.759 C 299.192 299.833 300.071 300.712 301.145 300.712 L 301.165 300.712 L 309.016 300.653 L 308.918 323.036 L 308.918 323.075 C 308.918 324.13 309.797 324.989 310.872 324.989 C 311.946 324.989 312.825 324.13 312.825 323.075 L 312.825 323.056 L 312.922 300.634 L 320.696 300.595 L 320.715 300.595 C 321.79 300.595 322.668 299.716 322.668 298.642 C 322.668 297.568 321.79 296.689 320.715 296.689 L 320.676 296.689 L 301.165 296.806 L 301.145 296.806 C 300.071 296.806 299.192 297.685 299.192 298.759 Z" style="white-space: pre; fill: rgb(255, 255, 255);"/>
  <path d="M 175.595 340.514 L 175.653 364.909 L 175.653 364.928 C 175.653 365.983 176.532 366.842 177.607 366.842 C 178.681 366.842 179.56 365.983 179.56 364.928 L 179.56 364.889 L 179.54 353.522 L 189.716 353.424 C 190.868 353.424 191.669 352.487 191.669 351.354 C 191.669 350.573 190.946 349.518 189.911 349.518 L 189.696 349.518 L 179.521 349.616 L 179.501 342.506 L 193.466 342.487 L 193.485 342.487 C 194.56 342.487 195.439 341.608 195.439 340.534 C 195.439 339.46 194.56 338.581 193.485 338.581 L 193.466 338.581 L 177.548 338.6 C 176.474 338.6 175.595 339.46 175.595 340.514 Z M 211.544 338.268 C 203.692 338.268 197.872 344.987 197.872 352.721 C 197.872 360.671 203.34 367.135 211.563 367.135 C 219.63 367.135 225.294 360.71 225.294 352.838 C 225.294 344.987 219.512 338.268 211.544 338.268 Z M 211.622 342.233 C 217.09 342.233 221.446 347.155 221.446 353.21 C 221.446 358.229 216.895 363.19 211.544 363.19 C 206.173 363.19 201.778 358.444 201.778 353.112 C 201.778 347.272 205.84 342.233 211.622 342.233 Z M 248.692 365.202 C 248.692 364.518 248.321 363.932 247.852 363.62 C 245.509 361.94 244.317 359.733 242.813 356.842 C 242.364 356.003 241.954 355.358 241.485 354.772 C 244.376 353.639 246.974 351.139 246.974 347.37 C 246.974 341.549 241.993 338.561 235.294 338.561 L 234.845 338.561 L 229.649 338.581 C 228.614 338.6 227.716 339.44 227.716 340.534 L 227.774 364.772 C 227.774 365.924 228.653 366.881 229.727 366.881 C 230.782 366.881 231.681 365.983 231.681 364.928 L 231.681 364.889 L 231.661 355.436 L 233.438 355.456 C 237.188 355.495 238.497 356.471 240.118 359.811 C 241.329 362.311 243.028 364.46 245.411 366.12 C 245.606 366.374 246.192 367.077 246.934 367.077 C 247.794 367.077 248.692 366.217 248.692 365.202 Z M 235.391 342.467 C 239.884 342.467 243.106 344.108 243.106 347.292 C 243.106 350.397 240.216 351.725 235.431 351.764 L 231.661 351.803 L 231.622 342.467 Z M 251.212 340.514 L 251.27 364.713 C 251.27 365.768 252.149 366.647 253.223 366.647 L 269.903 366.628 L 269.923 366.628 C 270.997 366.628 271.876 365.749 271.876 364.674 C 271.876 363.6 270.997 362.721 269.923 362.721 L 269.903 362.721 L 255.176 362.741 L 255.157 354.479 L 268.282 354.577 L 268.301 354.577 C 269.278 354.577 270.255 353.776 270.255 352.721 C 270.255 351.51 269.415 350.631 268.301 350.631 L 255.137 350.534 L 255.118 342.526 L 269.903 342.546 L 269.923 342.546 C 270.997 342.546 271.876 341.667 271.876 340.592 C 271.876 339.518 270.997 338.639 269.923 338.639 L 269.903 338.639 L 253.165 338.62 C 252.091 338.62 251.212 339.479 251.212 340.514 Z M 286.212 338.229 C 281.056 338.229 275.138 341.178 275.138 346.588 C 275.138 349.674 277.13 351.628 279.2 352.663 C 282.833 354.499 287.56 354.088 291.27 355.671 C 292.364 356.139 293.477 357.038 293.477 358.405 C 293.477 361.647 289.474 363.112 286.173 363.112 C 282.638 363.112 279.688 361.491 278.556 358.854 C 278.282 358.19 277.481 357.663 276.759 357.663 C 275.685 357.663 274.806 358.542 274.806 359.616 C 274.806 359.85 274.884 360.182 274.981 360.397 C 276.72 364.44 281.075 367.018 286.173 367.018 C 291.153 367.018 297.403 364.147 297.403 358.405 C 297.403 355.104 295.118 353.073 292.813 352.077 C 289.161 350.514 284.337 350.866 280.958 349.167 C 280.001 348.678 279.063 347.78 279.063 346.588 C 279.063 343.62 283.263 342.135 286.212 342.135 C 289.239 342.135 291.681 343.561 292.677 345.807 C 292.95 346.452 293.77 346.979 294.474 346.979 C 295.548 346.979 296.427 346.1 296.427 345.026 C 296.427 344.792 296.349 344.44 296.251 344.225 C 294.688 340.69 290.704 338.229 286.212 338.229 Z M 299.837 340.612 C 299.837 341.686 300.716 342.565 301.791 342.565 L 301.81 342.565 L 309.662 342.506 L 309.564 364.889 L 309.564 364.928 C 309.564 365.983 310.443 366.842 311.517 366.842 C 312.591 366.842 313.47 365.983 313.47 364.928 L 313.47 364.909 L 313.568 342.487 L 321.341 342.448 L 321.361 342.448 C 322.435 342.448 323.314 341.569 323.314 340.495 C 323.314 339.421 322.435 338.542 321.361 338.542 L 321.322 338.542 L 301.81 338.659 L 301.791 338.659 C 300.716 338.659 299.837 339.538 299.837 340.612 Z" style="white-space: pre; fill: rgb(255, 255, 255);"/>
</svg>